{"title":"WifeysWorld Boardroom Blowjob (Nov 22 2013)","uid":9265996,"size":299362221,"categoryP":"porn","categoryS":"movie_clips","magnet":"?xt=urn:btih:9bcd7ae168cbf2d8e0c11cab8b334928832f6bc7&amp;dn=WifeysWorld+Boardroom+Blowjob+%28Nov+22+2013%29&amp;tr=udp%3A%2F%2Ftracker.openbittorrent.com%3A80&amp;tr=udp%3A%2F%2Fopen.demonii.com%3A1337&amp;tr=udp%3A%2F%2Ftracker.coppersurfer.tk%3A6969&amp;tr=udp%3A%2F%2Fexodus.desync.com%3A6969","seeders":0,"leechers":0,"uploader":"pspxxx","files":1,"time":1385701308,"description":"WifeysWorld Boardroom Blowjob (Nov 22 2013)\n\nComplete name                            : WifeysWorld Boardroom Blowjob (Nov 22 2013).mp4\nFormat                                   : MPEG-4\nFormat profile                           : Base Media\nCodec ID                                 : isom\nFile size                                : 285 MiB\nDuration                                 : 19mn 19s\nOverall bit rate mode                    : Variable\nOverall bit rate                         : 2 066 Kbps\nEncoded date                             : UTC 2013-11-25 07:56:29\nTagged date                              : UTC 2013-11-25 07:56:29\n\nVideo\nID                                       : 1\nFormat                                   : AVC\nFormat/Info                              : Advanced Video Codec\nFormat profile                           : &lt;a class=&quot;__cf_email__&quot; href=&quot;/cdn-cgi/l/email-protection&quot; data-cfemail=&quot;e6ae8f818ea6aad2c8d6&quot;&gt;[email&amp;#160;protected]&lt;/a&gt;&lt;script cf-hash='f9e31' type=&quot;text/javascript&quot;&gt;\n/* &lt;![CDATA[ */!function(){try{var t=&quot;currentScript&quot;in document?document.currentScript:function(){for(var t=document.getElementsByTagName(&quot;script&quot;),e=t.length;e--;)if(t[e].getAttribute(&quot;cf-hash&quot;))return t[e]}();if(t&amp;&amp;t.previousSibling){var e,r,n,i,c=t.previousSibling,a=c.getAttribute(&quot;data-cfemail&quot;);if(a){for(e=&quot;&quot;,r=parseInt(a.substr(0,2),16),n=2;a.length-n;n+=2)i=parseInt(a.substr(n,2),16)^r,e+=String.fromCharCode(i);e=document.createTextNode(e),c.parentNode.replaceChild(e,c)}}}catch(u){}}();/* ]]&gt; */&lt;/script&gt;\nFormat settings, CABAC                   : No\nFormat settings, ReFrames                : 2 frames\nCodec ID                                 : avc1\nCodec ID/Info                            : Advanced Video Coding\nDuration                                 : 19mn 19s\nBit rate                                 : 1 829 Kbps\nMaximum bit rate                         : 3 736 Kbps\nWidth                                    : 1 280 pixels\nHeight                                   : 720 pixels\nDisplay aspect ratio                     : 16:9\nFrame rate mode                          : Constant\nFrame rate                               : 29.970 fps\nColor space                              : YUV\nChroma subsampling                       : 4:2:0\nBit depth                                : 8 bits\nScan type                                : Progressive\nBits/(Pixel*Frame)                       : 0.066\nStream size                              : 253 MiB (89%)\nTagged date                              : UTC 2013-11-25 07:56:36\n\nAudio\nID                                       : 2\nFormat                                   : AAC\nFormat/Info                              : Advanced Audio Codec\nFormat profile                           : LC\nCodec ID                                 : 40\nDuration                                 : 19mn 19s\nBit rate mode                            : Variable\nBit rate                                 : 228 Kbps\nMaximum bit rate                         : 238 Kbps\nChannel(s)                               : 2 channels\nChannel positions                        : Front: L R\nSampling rate                            : 48.0 KHz\nCompression mode                         : Lossy\nStream size                              : 32.4 MiB (11%)\nEncoded date                             : UTC 2013-11-25 07:56:29\nTagged date                              : UTC 2013-11-25 07:56:36\n","torrent":{"xt":"urn:btih:9bcd7ae168cbf2d8e0c11cab8b334928832f6bc7","amp;dn":"WifeysWorld+Boardroom+Blowjob+%28Nov+22+2013%29","amp;tr":["udp%3A%2F%2Ftracker.openbittorrent.com%3A80","udp%3A%2F%2Fopen.demonii.com%3A1337","udp%3A%2F%2Ftracker.coppersurfer.tk%3A6969","udp%3A%2F%2Fexodus.desync.com%3A6969"],"infoHash":"9bcd7ae168cbf2d8e0c11cab8b334928832f6bc7","infoHashBuffer":{"type":"Buffer","data":[155,205,122,225,104,203,242,216,224,193,28,171,139,51,73,40,131,47,107,199]},"announce":[],"urlList":[]}}